<svg width="64" height="64" viewBox="0 0 64 64" fill="none" xmlns="http://www.w3.org/2000/svg">
<circle cx="32" cy="32" r="32" fill="#077BC7"/>
<path d="M19 40.4604C20.9617 31.8435 25.1531 23.8834 31.1604 17.366C31.2672 17.2506 31.397 17.1585 31.5415 17.0955C31.686 17.0325 31.8422 17 32 17C32.1578 17 32.314 17.0325 32.4585 17.0955C32.603 17.1585 32.7328 17.2506 32.8396 17.366C33.0762 17.6207 33.2729 17.8358 33.4283 18.0099C39.1251 24.4088 43.105 32.1302 45 40.4604C41.9481 41.0986 38.8136 41.5175 35.6149 41.6972L32.6372 47.6095C32.5779 47.7269 32.4869 47.8255 32.3744 47.8945C32.2619 47.9635 32.1322 48 32 48C31.8678 48 31.7381 47.9635 31.6256 47.8945C31.5131 47.8255 31.4221 47.7269 31.3628 47.6095L28.3851 41.6972C25.2298 41.5202 22.0925 41.1067 19 40.4604ZM32 36.1387C33.1341 36.1387 34.2218 35.6914 35.0238 34.8953C35.8258 34.0991 36.2763 33.0193 36.2763 31.8934C36.2763 30.7675 35.8258 29.6877 35.0238 28.8915C34.2218 28.0954 33.1341 27.6481 32 27.6481C30.8658 27.6481 29.7782 28.0954 28.9762 28.8915C28.1742 29.6877 27.7237 30.7675 27.7237 31.8934C27.7237 33.0193 28.1742 34.0991 28.9762 34.8953C29.7782 35.6914 30.8658 36.1387 32 36.1387Z" fill="white"/>
</svg>
