<svg width="72" height="72" viewBox="0 0 72 72" fill="none" xmlns="http://www.w3.org/2000/svg">
<g filter="url(#filter0_d_16402_5)">
<circle cx="36" cy="32" r="32" fill="#181511"/>
<path d="M18.774 36.0808C18.9427 36.7105 19.2127 36.9547 19.6897 36.9547C20.1847 36.9547 20.4435 36.6589 20.4435 36.0808V25.3384H23.5463V36.0808C23.5463 37.5934 23.3482 38.2499 22.5787 39.0163C22.023 39.572 20.997 40 19.7032 40C18.6592 40 17.658 39.6549 17.0213 39.0185C16.461 38.4583 16.1528 37.8869 15.6735 36.0808L13.77 28.9192C13.6035 28.2895 13.3335 28.0453 12.8565 28.0453C12.3615 28.0453 12.1005 28.3411 12.1005 28.9192V39.6616H9V28.9192C9 27.4066 9.198 26.7501 9.9675 25.9837C10.5233 25.428 11.5492 25 12.843 25C13.887 25 14.8883 25.3451 15.525 25.9815C16.0853 26.5417 16.3913 27.1131 16.8728 28.9192L18.774 36.0808ZM59.7938 39.6616L56.214 28.5024C56.1868 28.3967 56.1411 28.2965 56.079 28.2066C56.0285 28.1456 55.9643 28.0971 55.8917 28.0652C55.819 28.0333 55.7398 28.0188 55.6605 28.0229C55.5816 28.0192 55.5028 28.0338 55.4306 28.0657C55.3583 28.0976 55.2945 28.1459 55.2442 28.2066C55.1821 28.2965 55.1364 28.3967 55.1093 28.5024L51.5295 39.6616H48.3232L52.236 27.4716C52.4385 26.8375 52.731 26.2974 53.1 25.9389C53.7345 25.3227 54.4815 25 55.6605 25C56.8418 25 57.5888 25.3227 58.2233 25.9411C58.5923 26.2997 58.8847 26.8375 59.0872 27.4716L63 39.6616H59.7938ZM43.9448 39.6616C45.9765 39.6616 46.9687 39.2314 47.7517 38.4561C48.618 37.5978 49.032 36.6589 49.032 35.2584C49.032 34.0193 48.5775 32.8742 47.8845 32.1885C46.9777 31.2922 45.8527 31.0076 44.0167 31.0076H41.4472C40.4662 31.0076 40.0748 30.8889 39.7643 30.5863C39.5528 30.378 39.4515 30.071 39.4515 29.7057C39.4515 29.3293 39.5415 28.9573 39.8025 28.7018C40.0342 28.4777 40.3493 28.3724 40.9523 28.3724H48.3795V25.3384H41.5193C39.4875 25.3384 38.4975 25.7686 37.7145 26.5439C36.8483 27.4022 36.432 28.3411 36.432 29.7416C36.432 30.9807 36.8887 32.1258 37.5795 32.8115C38.4885 33.7078 39.6135 33.9924 41.4495 33.9924H44.0167C45 33.9924 45.3893 34.1111 45.6998 34.4137C45.9135 34.622 46.0148 34.929 46.0148 35.2943C46.0148 35.673 45.9225 36.045 45.6615 36.2982C45.432 36.5223 45.117 36.6276 44.514 36.6276H36.8527L33.9142 27.4716C33.7117 26.8375 33.4193 26.2974 33.0503 25.9389C32.4158 25.3227 31.6665 25 30.4875 25C29.3085 25 28.5592 25.3227 27.927 25.9411C27.5557 26.2997 27.2655 26.8375 27.0608 27.4716L23.1503 39.6616H26.3542L29.9363 28.5024C29.9635 28.3967 30.0092 28.2965 30.0712 28.2066C30.1215 28.1459 30.1853 28.0976 30.2576 28.0657C30.3298 28.0338 30.4086 28.0192 30.4875 28.0229C30.672 28.0229 30.807 28.0856 30.906 28.2066C30.9682 28.2965 31.0139 28.3966 31.041 28.5024L34.6208 39.6616H43.9448Z" fill="#FFAE2B"/>
</g>
<defs>
<filter id="filter0_d_16402_5" x="0" y="0" width="72" height="72" filterUnits="userSpaceOnUse" color-interpolation-filters="sRGB">
<feFlood flood-opacity="0" result="BackgroundImageFix"/>
<feColorMatrix in="SourceAlpha" type="matrix" values="0 0 0 0 0 0 0 0 0 0 0 0 0 0 0 0 0 0 127 0" result="hardAlpha"/>
<feOffset dy="4"/>
<feGaussianBlur stdDeviation="2"/>
<feComposite in2="hardAlpha" operator="out"/>
<feColorMatrix type="matrix" values="0 0 0 0 0 0 0 0 0 0 0 0 0 0 0 0 0 0 0.25 0"/>
<feBlend mode="normal" in2="BackgroundImageFix" result="effect1_dropShadow_16402_5"/>
<feBlend mode="normal" in="SourceGraphic" in2="effect1_dropShadow_16402_5" result="shape"/>
</filter>
</defs>
</svg>
